<?xml version="1.0" encoding="UTF-8"?>
<svg version="1.1" viewBox="0 0 1008 1012" width="252" height="253" xmlns="http://www.w3.org/2000/svg">
<path transform="translate(72,4)" d="m0 0h732l17 6 16 8 10 6 10 7 13 12 6 8 8 13 8 15 6 16 1 1 1 7 1 796 2 3 3 1 88 1 6 5v2l4 2v2l4 2v22l-3 5-3 9-6 10-3 4-3 5-11 11-6 3-9 6-14 7-10 3-5 2-10 2-2 1-15 1h-16v4h-632l-2-3-11-3-17-9-7-4-21-21-7-11-3-4-8-17-4-11v-817h-166l-6-5-4-6-2-5-2-1v-10l2-2 7-22 8-16 11-12 3-3 3-6 5-2 7-7 7-4 6-3z" fill="#3D3D3D"/>
<path transform="translate(899,898)" d="m0 0 4 4 3 1 88 1 6 5v2l4 2v2l4 2v22l-3 5-3 9-6 10-3 4-3 5-11 11-6 3-9 6-14 7-10 3-5 2-10 2-2 1-15 1h-16v4h-570l3-2 24-10 14-7 13-9 10-9 11-11 9-14 8-16 3-14 4-8 8-6 8-3 10-2 1-1 10-1z" fill="#010101"/>
<path transform="translate(304,355)" d="m0 0h458l21 1 8 7 5 7 1 8-4 8-9 9-3 1h-480l-7-2-5-6-2-6v-13l3-6 6-5z" fill="#010101"/>
<path transform="translate(298,463)" d="m0 0h465l20 1 6 3 4 5 3 6 1 7-2 6-5 6-10 6-3 1h-468l-9-3-8-6-4-5-1-2v-7l5-12 3-5z" fill="#010101"/>
<path transform="translate(304,571)" d="m0 0h460l19 1 8 7 5 7 1 9-4 7-9 7-8 3h-467l-9-3-8-6-4-5-1-2v-8l5-10 8-6z" fill="#010101"/>
<path transform="translate(72,4)" d="m0 0h44l1 2 14 7 17 12 8 9 11 16 8 19 5 17v26h-166l-6-5-4-6-2-5-2-1v-10l2-2 7-22 8-16 11-12 3-3 3-6 5-2 7-7 7-4 6-3z" fill="#010101"/>
<path transform="translate(302,679)" d="m0 0h286l16 1 7 8 4 10-3 12-5 5-11 4-6 1h-277l-14-4-8-7-4-9 1-6 7-9z" fill="#010101"/>
<path transform="translate(180,877)" d="m0 0h1l1 26 4 29 5 16 5 9 10 14 18 18 13 9 15 6 13 3 15 2 4 2v1h-24l-2-3-11-3-17-9-7-4-21-21-7-11-3-4-8-17-4-11z" fill="#050505"/>
<path transform="translate(792,4)" d="m0 0h12l17 6 16 8 10 6 10 7 13 12 6 8 8 13 8 15 6 16 1 1v18l-3-4-2-16-6-16-8-15-10-14-16-16-18-12-17-8-13-4-14-4z" fill="#080808"/>
<path transform="translate(240 1e3)" d="m0 0 9 3 16 4 15 2 4 2v1h-24l-2-3-11-3-7-4z" fill="#040404"/>
</svg>
